<svg id="_x33__x2C__XD_x2C__Adobe" xmlns="http://www.w3.org/2000/svg" width="18" height="18" viewBox="0 0 18 18">
  <g id="Group_17" data-name="Group 17">
    <path id="Path_46" data-name="Path 46" d="M323.036,228.6c0,2.011,1.276,2.193,1.689,2.193a1.683,1.683,0,0,0,.6-.077v-4.19a.782.782,0,0,0-.469-.1C324.5,226.432,323.036,226.593,323.036,228.6Z" transform="translate(-311.679 -218.471)" fill="#afafaf"/>
    <path id="Path_47" data-name="Path 47" d="M0,0V18H18V0ZM7.8,13.5,6.1,9.981,4.415,13.5H2.849L5.172,8.911,2.929,4.43H4.514L6.187,7.883,7.838,4.43H9.377L7.1,8.857,9.491,13.5Zm7.356-.455a4.011,4.011,0,0,1-2.252.529c-2.079,0-3.055-1.457-3.055-3.383a3.254,3.254,0,0,1,3.341-3.476h.455V4.43h1.512v8.615Z" fill="#afafaf"/>
  </g>
</svg>
