<svg xmlns="http://www.w3.org/2000/svg" width="20" height="23.8" viewBox="0 0 20 23.8">
  <g id="comp_x5F_22-apple" transform="translate(-62.724 -26)">
    <g id="Group_16" data-name="Group 16" transform="translate(62.724 26)">
      <path id="Path_40" data-name="Path 40" d="M79.445,38.577A4.961,4.961,0,0,1,82.1,34.071a5.709,5.709,0,0,0-4.5-2.37c-1.886-.149-3.948,1.1-4.7,1.1-.8,0-2.625-1.047-4.06-1.047-2.965.048-6.116,2.364-6.116,7.078a13.236,13.236,0,0,0,.765,4.314c.68,1.95,3.135,6.732,5.7,6.653,1.339-.032,2.285-.951,4.028-.951,1.69,0,2.566.951,4.059.951,2.582-.037,4.8-4.384,5.452-6.339a5.267,5.267,0,0,1-3.279-4.883Zm-3.007-8.725A5,5,0,0,0,77.713,26a5.634,5.634,0,0,0-3.608,1.854,5.083,5.083,0,0,0-1.36,3.82A4.462,4.462,0,0,0,76.438,29.852Z" transform="translate(-62.724 -26)" fill="#afafaf"/>
    </g>
  </g>
</svg>
