<svg id="Layer_x0020_1" xmlns="http://www.w3.org/2000/svg" width="20" height="22.559" viewBox="0 0 20 22.559">
  <path id="Path_42" data-name="Path 42" d="M361.318,276.136l1.774-19.877.023-.261h-20l.023.261,1.773,19.88.015.166.16.044,7.954,2.208h.128l7.976-2.211.16-.044.015-.166Zm-8.186-15.74h5.812l-.175,2.034-5.734,2.549.1.459h5.381l-.619,7.1-4.781,1.326-4.78-1.323-.3-3.4H350l.158,1.723.015.167.162.043,2.739.728h.125l2.707-.752.161-.045.014-.166.271-3.183.022-.26h-8.5l-.179-2.043,5.537-2.37.393-.168-.094-.46h-6.089l-.173-1.954h5.869Z" transform="translate(-343.116 -255.998)" fill="#afafaf" fill-rule="evenodd"/>
</svg>
