<svg xmlns="http://www.w3.org/2000/svg" width="20" height="13" viewBox="0 0 20 13">
  <g id="Group_21" data-name="Group 21" transform="translate(-862 -250)">
    <path id="express-109" d="M.13,4.517V2.291H2.909v-.13H.13V.13H3.085V0H0V4.647H3.111v-.13H.13ZM5.617,1.3,4.465,2.818,3.339,1.3H3.17L4.387,2.916,3.052,4.647h.156L4.465,3.013,5.727,4.647H5.89L4.549,2.916,5.773,1.3H5.617Zm.664,4.491V3.71h.013a1.337,1.337,0,0,0,.462.732,1.36,1.36,0,0,0,.879.277A1.272,1.272,0,0,0,8.692,4.2a1.772,1.772,0,0,0,.273-.56,2.351,2.351,0,0,0,.094-.67,2.37,2.37,0,0,0-.1-.7,1.667,1.667,0,0,0-.283-.553,1.3,1.3,0,0,0-.449-.364,1.327,1.327,0,0,0-.6-.13,1.444,1.444,0,0,0-.472.075,1.263,1.263,0,0,0-.387.212,1.433,1.433,0,0,0-.293.322,1.484,1.484,0,0,0-.189.407H6.281V1.3H6.15V5.792h.13Zm1.354-1.2a1.247,1.247,0,0,1-.983-.42,1.767,1.767,0,0,1-.371-1.207,2.069,2.069,0,0,1,.091-.618,1.6,1.6,0,0,1,.264-.514,1.266,1.266,0,0,1,.426-.351,1.237,1.237,0,0,1,.573-.13,1.192,1.192,0,0,1,.569.13,1.154,1.154,0,0,1,.4.355,1.652,1.652,0,0,1,.241.514,2.265,2.265,0,0,1,.081.615,2.318,2.318,0,0,1-.075.583,1.665,1.665,0,0,1-.231.521,1.258,1.258,0,0,1-.4.377,1.125,1.125,0,0,1-.589.146Zm2.141.052V2.753a1.846,1.846,0,0,1,.078-.534,1.307,1.307,0,0,1,.241-.459,1.128,1.128,0,0,1,.413-.312,1.254,1.254,0,0,1,.6-.094v-.13a1.613,1.613,0,0,0-.524.065,1.272,1.272,0,0,0-.387.2,1,1,0,0,0-.26.29,1.3,1.3,0,0,0-.143.355H9.775V1.3h-.13V4.647h.13ZM11.266,3h2.8A2.316,2.316,0,0,0,14,2.336a1.651,1.651,0,0,0-.26-.566,1.325,1.325,0,0,0-.462-.4,1.423,1.423,0,0,0-.674-.15,1.37,1.37,0,0,0-1.015.459,1.734,1.734,0,0,0-.325.55,2.078,2.078,0,0,0-.124.742,2.721,2.721,0,0,0,.085.693,1.624,1.624,0,0,0,.26.56,1.175,1.175,0,0,0,.452.368,1.5,1.5,0,0,0,.667.124,1.464,1.464,0,0,0,.963-.322,1.333,1.333,0,0,0,.462-.908H13.9a1.251,1.251,0,0,1-.433.83,1.363,1.363,0,0,1-.875.277,1.344,1.344,0,0,1-.605-.124,1.1,1.1,0,0,1-.4-.338,1.476,1.476,0,0,1-.231-.5A2.713,2.713,0,0,1,11.266,3Zm2.668-.13H11.266a2.012,2.012,0,0,1,.13-.631,1.565,1.565,0,0,1,.29-.478,1.21,1.21,0,0,1,.417-.3,1.259,1.259,0,0,1,.511-.1,1.293,1.293,0,0,1,.573.12A1.183,1.183,0,0,1,13.6,1.8a1.45,1.45,0,0,1,.251.485,1.981,1.981,0,0,1,.085.582Zm2.831-.579h.13a.968.968,0,0,0-.325-.814,1.4,1.4,0,0,0-.885-.254,1.553,1.553,0,0,0-.527.078,1.054,1.054,0,0,0-.351.2.726.726,0,0,0-.2.273.785.785,0,0,0-.059.286.843.843,0,0,0,.1.436.642.642,0,0,0,.306.254,2.356,2.356,0,0,0,.325.117q.182.052.423.111l.423.1a1.528,1.528,0,0,1,.368.14.8.8,0,0,1,.26.225.588.588,0,0,1,.1.358.637.637,0,0,1-.1.364.813.813,0,0,1-.257.244,1.145,1.145,0,0,1-.348.137,1.737,1.737,0,0,1-.374.042,1.381,1.381,0,0,1-.908-.264,1.021,1.021,0,0,1-.316-.83h-.13a1.153,1.153,0,0,0,.342.924,1.519,1.519,0,0,0,1.012.293,1.977,1.977,0,0,0,.433-.049,1.2,1.2,0,0,0,.39-.159.882.882,0,0,0,.28-.286.809.809,0,0,0,.107-.43.723.723,0,0,0-.094-.391.792.792,0,0,0-.247-.247A1.312,1.312,0,0,0,16.3,3q-.193-.056-.387-.107l-.478-.124a2.9,2.9,0,0,1-.381-.124.646.646,0,0,1-.27-.205.621.621,0,0,1-.1-.381.9.9,0,0,1,.026-.163.584.584,0,0,1,.124-.238.833.833,0,0,1,.3-.215,1.329,1.329,0,0,1,.553-.094,1.731,1.731,0,0,1,.439.052.913.913,0,0,1,.342.166.755.755,0,0,1,.221.29,1.056,1.056,0,0,1,.078.43Zm3.013,0h.13a.968.968,0,0,0-.325-.814,1.4,1.4,0,0,0-.885-.254,1.552,1.552,0,0,0-.527.078,1.053,1.053,0,0,0-.351.2.726.726,0,0,0-.2.273.785.785,0,0,0-.059.286.843.843,0,0,0,.1.436.642.642,0,0,0,.306.254,2.357,2.357,0,0,0,.325.117q.182.052.423.111l.423.1a1.528,1.528,0,0,1,.368.14.8.8,0,0,1,.26.225.588.588,0,0,1,.1.358.637.637,0,0,1-.1.364.813.813,0,0,1-.257.244,1.145,1.145,0,0,1-.348.137,1.736,1.736,0,0,1-.374.042,1.381,1.381,0,0,1-.908-.264,1.021,1.021,0,0,1-.316-.83h-.13a1.153,1.153,0,0,0,.342.924,1.518,1.518,0,0,0,1.012.293,1.976,1.976,0,0,0,.433-.049,1.2,1.2,0,0,0,.391-.159.882.882,0,0,0,.28-.286A.809.809,0,0,0,20,3.794a.723.723,0,0,0-.094-.391.791.791,0,0,0-.247-.247A1.312,1.312,0,0,0,19.313,3q-.193-.056-.387-.107l-.478-.124a2.9,2.9,0,0,1-.381-.124.646.646,0,0,1-.27-.205.621.621,0,0,1-.1-.381.894.894,0,0,1,.026-.163.584.584,0,0,1,.124-.238.833.833,0,0,1,.3-.215,1.33,1.33,0,0,1,.553-.094,1.732,1.732,0,0,1,.439.052.914.914,0,0,1,.342.166.755.755,0,0,1,.221.29,1.056,1.056,0,0,1,.078.43Z" transform="translate(862 250)" fill="#212121"/>
    <text id="_API_" data-name="{API}" transform="translate(867 261)" fill="#212121" font-size="5" font-family="LaoSangamMN, Lao Sangam MN" letter-spacing="0.2em"><tspan x="0" y="0">{</tspan><tspan y="0" font-size="3">API</tspan><tspan y="0">}</tspan></text>
  </g>
</svg>
