<svg xmlns="http://www.w3.org/2000/svg" width="20" height="20" viewBox="0 0 20 20">
  <path id="git-view" d="M10,.3A10.128,10.128,0,0,0,0,10.551a10.232,10.232,0,0,0,6.838,9.728c.5.1.683-.22.683-.493,0-.244-.008-.889-.013-1.743-2.782.619-3.368-1.376-3.368-1.376a2.7,2.7,0,0,0-1.112-1.5c-.906-.636.07-.623.07-.623A2.1,2.1,0,0,1,4.629,15.6a2.1,2.1,0,0,0,2.912.853,2.207,2.207,0,0,1,.633-1.371c-2.221-.256-4.555-1.138-4.555-5.067A4.012,4.012,0,0,1,4.649,7.264,3.731,3.731,0,0,1,4.737,4.55s.837-.275,2.75,1.051a9.2,9.2,0,0,1,5,0c1.9-1.326,2.738-1.051,2.738-1.051a3.835,3.835,0,0,1,.1,2.714,4.029,4.029,0,0,1,1.025,2.751c0,3.939-2.337,4.807-4.563,5.059a2.489,2.489,0,0,1,.675,1.9c0,1.372-.013,2.475-.013,2.808,0,.269.175.59.688.487A10.2,10.2,0,0,0,20,10.551,10.13,10.13,0,0,0,10,.3" transform="translate(0 -0.297)" fill="#afafaf"/>
</svg>
