<svg xmlns="http://www.w3.org/2000/svg" width="20" height="14.997" viewBox="0 0 20 14.997">
  <g id="iconfinder_code_coding_html_css_programming_3994346" transform="translate(0 -12.012)">
    <path id="Path_43" data-name="Path 43" d="M5.176,24.3a1.253,1.253,0,0,0-1.76.159L.291,28.206a1.247,1.247,0,0,0,0,1.6l3.125,3.75a1.25,1.25,0,1,0,1.919-1.6L2.876,29.007l2.458-2.949A1.25,1.25,0,0,0,5.176,24.3Z" transform="translate(0 -9.497)" fill="#afafaf"/>
    <path id="Path_44" data-name="Path 44" d="M39.994,12.035a1.262,1.262,0,0,0-1.47.981l-2.5,12.5a1.247,1.247,0,0,0,.981,1.47,1.189,1.189,0,0,0,.247.024A1.249,1.249,0,0,0,38.476,26l2.5-12.5a1.247,1.247,0,0,0-.981-1.47Z" transform="translate(-28.5 0)" fill="#afafaf"/>
    <path id="Path_45" data-name="Path 45" d="M74.334,28.2l-3.125-3.75a1.25,1.25,0,1,0-1.919,1.6L71.748,29,69.29,31.951a1.25,1.25,0,1,0,1.919,1.6l3.125-3.75A1.247,1.247,0,0,0,74.334,28.2Z" transform="translate(-54.625 -9.492)" fill="#afafaf"/>
  </g>
</svg>
