<svg xmlns="http://www.w3.org/2000/svg" width="20" height="20.544" viewBox="0 0 20 20.544">
  <path id="iconfinder_Ubuntu_367643" d="M55.855,56.216a2.148,2.148,0,1,1-2.147-2.148A2.147,2.147,0,0,1,55.855,56.216Zm7.428-5.14a4.966,4.966,0,0,1,4.932,4.388l3.337-.1a8.264,8.264,0,0,0-2.019-4.777,2.987,2.987,0,0,1-4.711-2.438c0-.088,0-.173.011-.258a8.319,8.319,0,0,0-5.243.721l1.649,2.9A4.952,4.952,0,0,1,63.283,51.076Zm4.525-.781a2.148,2.148,0,1,0-2.148-2.147A2.147,2.147,0,0,0,67.809,50.3Zm.112,11.953A2.148,2.148,0,1,0,70.068,64.4,2.147,2.147,0,0,0,67.92,62.248Zm-9.6-6.206a4.957,4.957,0,0,1,1.9-3.909L58.45,49.3a8.312,8.312,0,0,0-3.129,4.4,2.987,2.987,0,0,1,.09,4.966,8.317,8.317,0,0,0,3.11,4.168l1.646-2.929A4.955,4.955,0,0,1,58.318,56.042Zm9.6,5.368a2.977,2.977,0,0,1,1.384.34,8.268,8.268,0,0,0,2.256-5.13l-3.337-.066a4.968,4.968,0,0,1-6.941,4.034l-1.659,2.9a8.259,8.259,0,0,0,3.66.85,8.369,8.369,0,0,0,1.659-.166A2.985,2.985,0,0,1,67.92,61.41Z" transform="translate(-51.56 -46)" fill="#afafaf"/>
</svg>
