<svg xmlns="http://www.w3.org/2000/svg" width="20" height="22.558" viewBox="0 0 20 22.558">
  <g id="comp_x5F_233-node-js" transform="translate(-52.085 -26.001)">
    <g id="Group_15" data-name="Group 15" transform="translate(52.085 26.001)">
      <path id="Path_39" data-name="Path 39" d="M62.08,48.559a1.753,1.753,0,0,1-.868-.233L58.45,46.693c-.412-.233-.21-.313-.076-.358a5.438,5.438,0,0,0,1.249-.568.2.2,0,0,1,.206.018l2.122,1.258a.259.259,0,0,0,.255,0l8.268-4.772a.265.265,0,0,0,.125-.224V32.5a.266.266,0,0,0-.13-.228l-8.263-4.767a.259.259,0,0,0-.255,0l-8.259,4.772a.261.261,0,0,0-.13.228v9.539a.247.247,0,0,0,.13.219l2.265,1.307c1.231.613,1.983-.107,1.983-.837V33.317a.237.237,0,0,1,.242-.237h1.047a.24.24,0,0,1,.242.237V42.74a2.291,2.291,0,0,1-2.448,2.578,3.515,3.515,0,0,1-1.9-.519L52.953,43.55a1.741,1.741,0,0,1-.868-1.508V32.5a1.746,1.746,0,0,1,.868-1.508l8.259-4.772a1.813,1.813,0,0,1,1.737,0L71.217,31a1.741,1.741,0,0,1,.868,1.509v9.539a1.752,1.752,0,0,1-.868,1.509l-8.268,4.772A1.741,1.741,0,0,1,62.08,48.559Zm6.674-9.4c0-1.786-1.209-2.261-3.747-2.6-2.569-.34-2.829-.515-2.829-1.115,0-.5.219-1.159,2.122-1.159,1.7,0,2.323.367,2.583,1.513a.24.24,0,0,0,.233.188h1.074a.234.234,0,0,0,.175-.076.248.248,0,0,0,.063-.184c-.166-1.974-1.477-2.892-4.127-2.892-2.359,0-3.764.994-3.764,2.663,0,1.808,1.4,2.31,3.662,2.534,2.708.264,2.919.663,2.919,1.2,0,.922-.743,1.316-2.484,1.316-2.189,0-2.668-.551-2.829-1.638a.237.237,0,0,0-.237-.2H60.5a.236.236,0,0,0-.237.237c0,1.392.756,3.053,4.378,3.053,2.614,0,4.118-1.039,4.118-2.838Z" transform="translate(-52.085 -26.001)" fill="#afafaf"/>
    </g>
  </g>
</svg>
