<svg xmlns="http://www.w3.org/2000/svg" width="20" height="20" viewBox="0 0 20 20">
  <g id="Group_20" data-name="Group 20" transform="translate(-885 -219)">
    <path id="Path_71" data-name="Path 71" d="M4.942.737A3.529,3.529,0,0,0,4.223.711h0L2.557.805A2.539,2.539,0,0,0,0,3.267V19.442L1.628,20.7l16.358-2.285A2.494,2.494,0,0,0,20,15.961V2.789L4.942.737" transform="translate(885 218.297)" fill="gray"/>
    <path id="Path_72" data-name="Path 72" d="M39.207,15.959a2.5,2.5,0,0,1-2.014,2.458L20.835,20.7V3.179A2.7,2.7,0,0,1,24.149.735L39.207,2.787V15.959" transform="translate(865.793 218.299)" fill="#afafaf"/>
    <path id="Path_73" data-name="Path 73" d="M72.754,66.916H72.7a.544.544,0,0,1-.426-.152,1.186,1.186,0,0,1-.154-.743V61.606l1.487.057V60.454l-1.487-.088V58.44L70.8,58.322l-.547,1.936-.871-.052v1.3l.715.027v4.9a1.831,1.831,0,0,0,.469,1.4,1.662,1.662,0,0,0,1.175.375c.077,0,.157,0,.239-.008a6.384,6.384,0,0,0,1.736-.383V66.7a3.158,3.158,0,0,1-.958.22m-7.665-9.246q-.288-.028-.578-.029a3.454,3.454,0,0,0-2.755,1.147,6.5,6.5,0,0,0-1.187,4.3,8.06,8.06,0,0,0,.866,4.132,3.44,3.44,0,0,0,2.431,1.668,3.008,3.008,0,0,0,1.067,1.862,2.566,2.566,0,0,0,1.448.365,5.544,5.544,0,0,0,.574-.032l.684-.075V69.756c-.1.009-.2.014-.3.014a1.19,1.19,0,0,1-.714-.174,1.464,1.464,0,0,1-.45-.86,3.4,3.4,0,0,0,2.178-1.811,8.288,8.288,0,0,0,.693-3.72,6.833,6.833,0,0,0-.946-3.934,3.893,3.893,0,0,0-3.012-1.6Zm1.2,8.9a1.383,1.383,0,0,1-1.2.916l-.071,0a1.3,1.3,0,0,1-1.2-.951,9.512,9.512,0,0,1-.429-3.408,7.993,7.993,0,0,1,.435-3.283,1.254,1.254,0,0,1,1.148-.727c.04,0,.08,0,.122,0a1.415,1.415,0,0,1,1.207.925,8.3,8.3,0,0,1,.4,3.128A9.318,9.318,0,0,1,66.292,66.568Z" transform="translate(829.164 165.055)" fill="#d5d5d5"/>
    <path id="Path_74" data-name="Path 74" d="M65.036,61.649l-1.487-.057v.027l.8.03h.691m-.584,5.033a3.728,3.728,0,0,1-.593.176.715.715,0,0,0,.27.045h.056a3.158,3.158,0,0,0,.958-.22h-.691m-2.224-8.375h-.689L61,60.2l.678.041.547-1.936m-.234,9.5a1.831,1.831,0,0,1-.469-1.4v-4.9l-.715-.027v-1.3h-.689v.29a6.939,6.939,0,0,1,.236,1.014l.478.018v4.9a1.831,1.831,0,0,0,.469,1.4,1.662,1.662,0,0,0,1.175.375h.689a1.661,1.661,0,0,1-1.175-.375m-3.223,1.947c.093,0,.192,0,.3-.014h-.554a2.158,2.158,0,0,0,.257.014m-2.038,1.169-.039-.015h0l-.036-.015-.007,0-.032-.014-.009,0-.029-.013-.013-.007-.024-.011-.016-.009L56.5,70.82l-.019-.01-.017-.01-.022-.012-.014-.009-.025-.016-.009,0-.034-.023A3.008,3.008,0,0,1,55.3,68.873,3.44,3.44,0,0,1,52.865,67.2,8.06,8.06,0,0,1,52,63.073a6.5,6.5,0,0,1,1.187-4.3,3.454,3.454,0,0,1,2.755-1.147h-.728a3.451,3.451,0,0,0-2.753,1.147,6.5,6.5,0,0,0-1.187,4.3,8.06,8.06,0,0,0,.866,4.132,3.442,3.442,0,0,0,2.432,1.668,3.007,3.007,0,0,0,1.066,1.862,2.566,2.566,0,0,0,1.448.365h.67a2.955,2.955,0,0,1-1.021-.174h0" transform="translate(837.732 165.069)" fill="gray"/>
    <path id="Path_75" data-name="Path 75" d="M112.83,80.332q-.061,0-.122,0a1.282,1.282,0,0,0-.353.047,1.468,1.468,0,0,1,.956.883,8.27,8.27,0,0,1,.4,3.128,9.283,9.283,0,0,1-.4,3.395,1.468,1.468,0,0,1-.9.866,1.194,1.194,0,0,0,.353.052l.071,0a1.383,1.383,0,0,0,1.2-.916,9.317,9.317,0,0,0,.4-3.395,8.3,8.3,0,0,0-.4-3.128,1.415,1.415,0,0,0-1.207-.925" transform="translate(781.423 143.843)" fill="gray"/>
  </g>
</svg>
