<svg xmlns="http://www.w3.org/2000/svg" width="20" height="20.257" viewBox="0 0 20 20.257">
  <g id="iconfinder_Python_1378016" transform="translate(-6.501 0)">
    <g id="Group_2" data-name="Group 2" transform="translate(6.501 0)">
      <path id="Path_14" data-name="Path 14" d="M271.9,271.088v.61h4.783c0,.743,0,1.466,0,2.189a.122.122,0,0,1,0,.019,2.165,2.165,0,0,1-.942,1.424,5.573,5.573,0,0,1-2.038.816,7.79,7.79,0,0,1-4.918-.42,4.239,4.239,0,0,1-1.046-.678,1.892,1.892,0,0,1-.671-1.5c0-1.544-.016-3.088,0-4.632a2.434,2.434,0,0,1,2.483-2.433c1.543,0,3.085-.021,4.627,0a3.118,3.118,0,0,0,3.1-2.644,3.757,3.757,0,0,0,.028-.518c0-.606,0-1.211,0-1.817v-.234h.7c.359,0,.718,0,1.077,0a2.091,2.091,0,0,1,1.927,1.094,5.733,5.733,0,0,1,.612,1.719,9.508,9.508,0,0,1,.264,2.79,7.636,7.636,0,0,1-.932,3.128,2,2,0,0,1-1.9,1.083c-2.294-.008-4.588,0-6.881,0Zm2.712,1.842a.9.9,0,0,0-.914.9.9.9,0,1,0,1.8.026A.9.9,0,0,0,274.612,272.93Z" transform="translate(-261.902 -256.107)" fill="#afafaf" fill-rule="evenodd"/>
      <path id="Path_15" data-name="Path 15" d="M16.473,5.17V4.56H11.682a1.034,1.034,0,0,1-.02-.137c0-.679-.011-1.358.015-2.036A1.84,1.84,0,0,1,13.191.43,11.684,11.684,0,0,1,15.125.073,13.628,13.628,0,0,1,18.959.22,2.949,2.949,0,0,1,20.8,1.287,2.212,2.212,0,0,1,21.3,2.7c0,1.537.007,3.075,0,4.612a2.407,2.407,0,0,1-2.474,2.449c-1.556,0-3.112,0-4.668,0A3.068,3.068,0,0,0,11.1,12.29a3.339,3.339,0,0,0-.046.6c-.006.619,0,1.238,0,1.857v.239c-.148,0-.272,0-.4,0-.492,0-.985.008-1.475-.019A2.227,2.227,0,0,1,7.4,13.9a5.127,5.127,0,0,1-.66-1.741,9.149,9.149,0,0,1,.133-4.693A2.992,2.992,0,0,1,9.9,5.171q3.162-.005,6.323,0ZM13.76,1.492a.9.9,0,0,0-.891.927.9.9,0,1,0,.891-.927Z" transform="translate(-6.501 0)" fill="#afafaf" fill-rule="evenodd"/>
    </g>
  </g>
</svg>
