<svg xmlns="http://www.w3.org/2000/svg" width="20" height="17.795" viewBox="0 0 20 17.795">
  <path id="iconfinder_react_4691292" d="M10,8.438a1.782,1.782,0,1,0,1.783,1.783A1.783,1.783,0,0,0,10,8.438ZM5.007,13.766l-.393-.1C1.682,12.926,0,11.668,0,10.217S1.682,7.509,4.613,6.768l.393-.1.111.39a19.608,19.608,0,0,0,1.136,2.982l.084.178-.084.177a19.422,19.422,0,0,0-1.136,2.982l-.111.389ZM4.431,7.679C2.2,8.3.835,9.262.835,10.217s1.368,1.912,3.6,2.538a20.791,20.791,0,0,1,.985-2.538,20.627,20.627,0,0,1-.985-2.538Zm10.563,6.087-.111-.391a19.464,19.464,0,0,0-1.137-2.981l-.084-.178.084-.178a19.517,19.517,0,0,0,1.137-2.982l.111-.39.394.1c2.931.741,4.612,2,4.612,3.45s-1.682,2.708-4.612,3.449Zm-.409-3.549a20.6,20.6,0,0,1,.985,2.538c2.229-.627,3.6-1.584,3.6-2.538s-1.368-1.912-3.6-2.538a20.657,20.657,0,0,1-.985,2.538ZM4.425,7.675l-.111-.389C3.49,4.381,3.74,2.3,5,1.572,6.236.859,8.22,1.7,10.3,3.836l.283.291-.283.291A19.627,19.627,0,0,0,8.281,6.89l-.113.161-.2.017a19.714,19.714,0,0,0-3.154.508l-.393.1ZM6.005,2.15a1.163,1.163,0,0,0-.587.144c-.828.477-.975,2.137-.4,4.377a20.935,20.935,0,0,1,2.694-.418,20.706,20.706,0,0,1,1.71-2.12C8.117,2.868,6.887,2.15,6.005,2.15ZM14,19.118h0c-1.188,0-2.712-.894-4.3-2.519l-.283-.291.283-.291a19.608,19.608,0,0,0,2.018-2.473l.112-.161.2-.017a19.691,19.691,0,0,0,3.156-.508l.393-.1.112.39c.823,2.9.573,4.986-.687,5.712a1.983,1.983,0,0,1-1,.257ZM10.583,16.3c1.3,1.266,2.531,1.984,3.412,1.984h0a1.16,1.16,0,0,0,.587-.144c.828-.477.976-2.138.4-4.378a20.85,20.85,0,0,1-2.695.418A20.562,20.562,0,0,1,10.583,16.3Zm4.993-8.626-.393-.1a19.565,19.565,0,0,0-3.156-.508l-.2-.017-.112-.161A19.512,19.512,0,0,0,9.7,4.417l-.283-.291L9.7,3.836C11.779,1.7,13.763.86,15,1.572c1.26.727,1.51,2.808.687,5.713l-.112.39ZM12.292,6.254a20.782,20.782,0,0,1,2.695.418c.572-2.24.424-3.9-.4-4.377s-2.371.253-4,1.84a20.708,20.708,0,0,1,1.709,2.12ZM6.005,19.118A1.983,1.983,0,0,1,5,18.861c-1.26-.726-1.51-2.808-.686-5.712l.11-.39.393.1a19.67,19.67,0,0,0,3.154.507l.2.017.112.161A19.663,19.663,0,0,0,10.3,16.017l.283.291L10.3,16.6C8.716,18.224,7.191,19.118,6,19.118Zm-.992-5.356c-.572,2.24-.424,3.9.4,4.378s2.369-.254,4-1.84a20.832,20.832,0,0,1-1.71-2.121,20.813,20.813,0,0,1-2.694-.418ZM10,14.286c-.686,0-1.391-.03-2.1-.088l-.2-.017L7.6,14.02q-.6-.86-1.125-1.768T5.5,10.395l-.083-.177L5.5,10.04q.447-.948.972-1.857c.345-.6.724-1.192,1.125-1.768l.113-.161.2-.017a24.821,24.821,0,0,1,4.194,0l.195.017.112.161a25,25,0,0,1,2.1,3.625l.084.178-.084.177a24.667,24.667,0,0,1-2.1,3.625l-.112.161-.2.017c-.706.058-1.412.088-2.1.088Zm-1.831-.9a24.2,24.2,0,0,0,3.663,0,24.171,24.171,0,0,0,1.83-3.165,23.821,23.821,0,0,0-1.831-3.165,24.193,24.193,0,0,0-3.662,0,23.731,23.731,0,0,0-1.831,3.165,24.261,24.261,0,0,0,1.831,3.165Z" transform="translate(0 -1.324)" fill="#afafaf"/>
</svg>
