<svg xmlns="http://www.w3.org/2000/svg" width="20" height="19.286" viewBox="0 0 20 19.286">
  <g id="Page-1" transform="translate(-2 -3)">
    <g id="icon-89-document-file-sql" transform="translate(2 3)">
      <path id="document-file-sql" d="M15.571,19.429v1.43a1.425,1.425,0,0,1-1.427,1.427H3.427A1.429,1.429,0,0,1,2,20.852V4.434A1.434,1.434,0,0,1,3.435,3h7.137V7.287A1.426,1.426,0,0,0,12,8.714h3.567v1.429H8.433a2.145,2.145,0,0,0-2.148,2.142v5a2.14,2.14,0,0,0,2.148,2.142ZM11.286,3V7.284A.715.715,0,0,0,11.993,8h3.578L11.286,3ZM8.425,10.857A1.428,1.428,0,0,0,7,12.28v5.011a1.428,1.428,0,0,0,1.425,1.423H20.575A1.428,1.428,0,0,0,22,17.291V12.28a1.428,1.428,0,0,0-1.425-1.423ZM15.34,17.2a1.441,1.441,0,0,1-.486.084h-.707a1.431,1.431,0,0,1-1.432-1.433V13.719a1.427,1.427,0,0,1,1.432-1.433h.707a1.431,1.431,0,0,1,1.432,1.433v2.134a1.428,1.428,0,0,1-.347.938l.538.538-.505.505L15.34,17.2Zm-.631-.631h-.567a.712.712,0,0,1-.714-.714V13.714A.712.712,0,0,1,14.142,13h.716a.712.712,0,0,1,.714.714v2.143a.712.712,0,0,1-.14.426l-.975-.975-.505.505.758.758ZM9.861,12.286a1.429,1.429,0,1,0,0,2.857h.708a.714.714,0,1,1,.007,1.429H9.856a.717.717,0,0,1-.714-.711v-.008H8.429v0a1.429,1.429,0,0,0,1.432,1.429h.707a1.429,1.429,0,1,0,0-2.857H9.864A.714.714,0,1,1,9.856,13h.716a.716.716,0,0,1,.714.714H12a1.429,1.429,0,0,0-1.432-1.429Zm10.711,4.286v.714H17v-5h.714v4.286Z" transform="translate(-2 -3)" fill="#afafaf" fill-rule="evenodd"/>
    </g>
  </g>
</svg>
