<svg xmlns="http://www.w3.org/2000/svg" width="20" height="19.786" viewBox="0 0 20 19.786">
  <g id="visual-studio-code-1" transform="translate(-2.725 -13.962)">
    <path id="Path_48" data-name="Path 48" d="M2.915,245.936s-.487-.351.1-.82L4.375,243.9a.578.578,0,0,1,.8-.053l12.568,9.515v4.563s-.006.716-.926.637Z" transform="translate(0 -225.075)" fill="#afafaf"/>
    <path id="Path_49" data-name="Path 49" d="M8.2,498.8l-3.239,2.945s-.333.248,0,.69l1.5,1.368a.618.618,0,0,0,.885-.053l3.434-2.6Z" transform="translate(-2.044 -474.998)" fill="#afafaf"/>
    <path id="Path_50" data-name="Path 50" d="M302.1,31.872l5.941-4.536-.039-4.538s-.254-.99-1.1-.475L299,29.518Z" transform="translate(-290.261 -8.045)" fill="#afafaf"/>
    <path id="Path_51" data-name="Path 51" d="M688.674,33.492a.817.817,0,0,0,.763.237l4.63-2.281a.976.976,0,0,0,.509-.905V16.92a.911.911,0,0,0-.613-.806l-4.013-1.934a1.114,1.114,0,0,0-1.451.1s.739-.532,1.1.475V32.765a.819.819,0,0,1-.079.355c-.106.213-.335.412-.885.329Z" transform="translate(-671.856 0)" fill="#afafaf"/>
  </g>
</svg>
