<svg xmlns="http://www.w3.org/2000/svg" width="30" height="22.5" viewBox="0 0 30 22.5">
  <g id="envelope" transform="translate(0 -64)">
    <g id="Group_8" data-name="Group 8" transform="translate(0 64)">
      <g id="Group_7" data-name="Group 7">
        <path id="Path_24" data-name="Path 24" d="M7.135,65.826C11.252,69.313,18.477,75.447,20.6,77.36a1.254,1.254,0,0,0,1.815,0c2.125-1.915,9.35-8.05,13.467-11.537a.625.625,0,0,0,.088-.862A2.482,2.482,0,0,0,34.009,64h-25a2.482,2.482,0,0,0-1.962.963A.625.625,0,0,0,7.135,65.826Z" transform="translate(-6.509 -64)" fill="#484848"/>
        <path id="Path_25" data-name="Path 25" d="M29.637,126.47a.622.622,0,0,0-.667.09c-4.566,3.871-10.394,8.832-12.227,10.485a2.531,2.531,0,0,1-3.489,0c-1.954-1.761-8.5-7.324-12.226-10.483A.625.625,0,0,0,0,127.037v15.718a2.5,2.5,0,0,0,2.5,2.5h25a2.5,2.5,0,0,0,2.5-2.5V127.037A.625.625,0,0,0,29.637,126.47Z" transform="translate(0 -122.755)" fill="#484848"/>
      </g>
    </g>
  </g>
</svg>
