<svg xmlns="http://www.w3.org/2000/svg" width="25" height="25" viewBox="0 0 25 25">
  <path id="git-view" d="M12.5.3A12.66,12.66,0,0,0,0,13.114a12.79,12.79,0,0,0,8.547,12.16c.625.121.854-.276.854-.616,0-.3-.01-1.111-.016-2.179-3.477.773-4.21-1.72-4.21-1.72a3.376,3.376,0,0,0-1.391-1.875c-1.132-.795.088-.779.088-.779a2.629,2.629,0,0,1,1.915,1.32,2.627,2.627,0,0,0,3.641,1.066,2.759,2.759,0,0,1,.792-1.714c-2.776-.32-5.694-1.423-5.694-6.334A5.015,5.015,0,0,1,5.811,9.005a4.664,4.664,0,0,1,.109-3.392s1.047-.344,3.438,1.314a11.5,11.5,0,0,1,6.25,0c2.375-1.658,3.422-1.314,3.422-1.314a4.794,4.794,0,0,1,.125,3.392,5.036,5.036,0,0,1,1.281,3.439c0,4.924-2.922,6.008-5.7,6.323a3.111,3.111,0,0,1,.844,2.371c0,1.715-.016,3.093-.016,3.51,0,.336.219.737.859.609A12.746,12.746,0,0,0,25,13.114,12.662,12.662,0,0,0,12.5.3" transform="translate(0 -0.297)"/>
</svg>
