<?xml version="1.0" standalone="no"?>
<!DOCTYPE svg PUBLIC "-//W3C//DTD SVG 20010904//EN"
 "http://www.w3.org/TR/2001/REC-SVG-20010904/DTD/svg10.dtd">
<svg version="1.0" xmlns="http://www.w3.org/2000/svg"
 width="989.000000pt" height="989.000000pt" viewBox="0 0 989.000000 989.000000"
 preserveAspectRatio="xMidYMid meet">
<metadata>
Created by potrace 1.11, written by Peter Selinger 2001-2013
</metadata>
<g transform="translate(0.000000,989.000000) scale(0.100000,-0.100000)"
fill="#000000" stroke="none">
<path d="M10 4950 l0 -3850 4935 0 4935 0 0 3850 0 3850 -4935 0 -4935 0 0
-3850z m4770 0 l0 -1080 -600 0 -600 0 0 477 0 478 -478 -478 -477 -477 -685
0 -685 0 1080 1080 1080 1080 682 0 683 0 0 -1080z m1360 603 l0 -478 478 478
477 477 685 0 685 0 -560 -560 -560 -560 520 -520 520 -520 -685 0 -685 0
-437 437 -438 438 0 -438 0 -437 -600 0 -600 0 0 1080 0 1080 600 0 600 0 0
-477z"/>
</g>
</svg>
